HIERARCHY
ROOT mixamorig:Hips
{
	OFFSET 0.000000 201.639420 0.000000
	CHANNELS 6 Xposition Yposition Zposition Xrotation Yrotation Zrotation
	JOINT mixamorig:Spine
	{
		OFFSET 0.006200 19.524994 -2.481800
		CHANNELS 3 Xrotation Yrotation Zrotation
		JOINT mixamorig:Spine1
		{
			OFFSET -0.000900 22.835007 -2.825400
			CHANNELS 3 Xrotation Yrotation Zrotation
			JOINT mixamorig:Spine2
			{
				OFFSET -0.020600 26.552490 -3.193300
				CHANNELS 3 Xrotation Yrotation Zrotation
				JOINT mixamorig:Neck
				{
					OFFSET -0.060000 30.701813 1.352200
					CHANNELS 3 Xrotation Yrotation Zrotation
					JOINT mixamorig:Head
					{
						OFFSET -0.087200 22.547607 3.670900
						CHANNELS 3 Xrotation Yrotation Zrotation
						JOINT mixamorig:HeadTop_End
						{
							OFFSET -0.830600 40.355194 7.893500
							CHANNELS 3 Xrotation Yrotation Zrotation
							End Site
							{
								OFFSET 0.000000 30.592346 0.000000
							}
						}
						JOINT mixamorig:RightEye
						{
							OFFSET -6.302100 18.118591 16.197100
							CHANNELS 3 Xrotation Yrotation Zrotation
							End Site
							{
								OFFSET 0.000000 30.592346 0.000000
							}
						}
						JOINT mixamorig:LeftEye
						{
							OFFSET 6.741500 18.382690 16.401899
							CHANNELS 3 Xrotation Yrotation Zrotation
							End Site
							{
								OFFSET 0.000000 30.592346 0.000000
							}
						}
					}
				}
				JOINT mixamorig:LeftShoulder
				{
					OFFSET 11.924900 18.230499 1.425400
					CHANNELS 3 Xrotation Yrotation Zrotation
					JOINT mixamorig:LeftArm
					{
						OFFSET 25.435989 -0.697632 -5.229300
						CHANNELS 3 Xrotation Yrotation Zrotation
						JOINT mixamorig:LeftForeArm
						{
							OFFSET 54.684776 0.000000 0.000000
							CHANNELS 3 Xrotation Yrotation Zrotation
							JOINT mixamorig:LeftHand
							{
								OFFSET 55.098175 0.000000 0.000000
								CHANNELS 3 Xrotation Yrotation Zrotation
								JOINT mixamorig:LeftHandMiddle1
								{
									OFFSET 23.369751 0.000000 0.000000
									CHANNELS 3 Xrotation Yrotation Zrotation
									JOINT mixamorig:LeftHandMiddle2
									{
										OFFSET 6.378677 0.000000 0.000000
										CHANNELS 3 Xrotation Yrotation Zrotation
										JOINT mixamorig:LeftHandMiddle3
										{
											OFFSET 6.148331 0.000000 0.000000
											CHANNELS 3 Xrotation Yrotation Zrotation
											JOINT mixamorig:LeftHandMiddle4
											{
												OFFSET 6.582504 0.000000 0.000000
												CHANNELS 3 Xrotation Yrotation Zrotation
												End Site
												{
													OFFSET -1.168900 6.395691 1.028606
												}
											}
										}
									}
								}
								JOINT mixamorig:LeftHandThumb1
								{
									OFFSET 7.235672 -3.848206 5.434273
									CHANNELS 3 Xrotation Yrotation Zrotation
									JOINT mixamorig:LeftHandThumb2
									{
										OFFSET 6.568451 -3.792297 3.792300
										CHANNELS 3 Xrotation Yrotation Zrotation
										JOINT mixamorig:LeftHandThumb3
										{
											OFFSET 6.063080 -3.500519 3.500518
											CHANNELS 3 Xrotation Yrotation Zrotation
											JOINT mixamorig:LeftHandThumb4
											{
												OFFSET 4.793182 -2.767334 2.767349
												CHANNELS 3 Xrotation Yrotation Zrotation
												End Site
												{
													OFFSET 0.101639 6.054260 1.275483
												}
											}
										}
									}
								}
								JOINT mixamorig:LeftHandIndex1
								{
									OFFSET 23.101074 -0.309540 4.992809
									CHANNELS 3 Xrotation Yrotation Zrotation
									JOINT mixamorig:LeftHandIndex2
									{
										OFFSET 6.226883 0.000000 0.000000
										CHANNELS 3 Xrotation Yrotation Zrotation
										JOINT mixamorig:LeftHandIndex3
										{
											OFFSET 6.094330 0.000000 0.000000
											CHANNELS 3 Xrotation Yrotation Zrotation
											JOINT mixamorig:LeftHandIndex4
											{
												OFFSET 5.482605 0.000000 0.000000
												CHANNELS 3 Xrotation Yrotation Zrotation
												End Site
												{
													OFFSET -1.427902 5.233032 0.797164
												}
											}
										}
									}
								}
								JOINT mixamorig:LeftHandRing1
								{
									OFFSET 22.299240 0.021149 -3.964172
									CHANNELS 3 Xrotation Yrotation Zrotation
									JOINT mixamorig:LeftHandRing2
									{
										OFFSET 6.321869 0.000000 0.000000
										CHANNELS 3 Xrotation Yrotation Zrotation
										JOINT mixamorig:LeftHandRing3
										{
											OFFSET 5.899796 0.000000 0.000000
											CHANNELS 3 Xrotation Yrotation Zrotation
											JOINT mixamorig:LeftHandRing4
											{
												OFFSET 6.517899 0.000000 0.000000
												CHANNELS 3 Xrotation Yrotation Zrotation
												End Site
												{
													OFFSET -1.637299 6.232208 0.980890
												}
											}
										}
									}
								}
								JOINT mixamorig:LeftHandPinky1
								{
									OFFSET 20.463791 -0.302338 -8.562233
									CHANNELS 3 Xrotation Yrotation Zrotation
									JOINT mixamorig:LeftHandPinky2
									{
										OFFSET 6.908646 0.000000 0.000000
										CHANNELS 3 Xrotation Yrotation Zrotation
										JOINT mixamorig:LeftHandPinky3
										{
											OFFSET 4.622849 0.000000 0.000000
											CHANNELS 3 Xrotation Yrotation Zrotation
											JOINT mixamorig:LeftHandPinky4
											{
												OFFSET 5.216080 0.000000 0.000000
												CHANNELS 3 Xrotation Yrotation Zrotation
												End Site
												{
													OFFSET -0.606308 5.116241 0.814926
												}
											}
										}
									}
								}
							}
						}
					}
				}
				JOINT mixamorig:RightShoulder
				{
					OFFSET -12.001300 18.284088 1.348900
					CHANNELS 3 Xrotation Yrotation Zrotation
					JOINT mixamorig:RightArm
					{
						OFFSET -25.308500 -0.751312 -5.164599
						CHANNELS 3 Xrotation Yrotation Zrotation
						JOINT mixamorig:RightForeArm
						{
							OFFSET -54.684429 0.000000 0.000000
							CHANNELS 3 Xrotation Yrotation Zrotation
							JOINT mixamorig:RightHand
							{
								OFFSET -55.150291 0.000000 0.000000
								CHANNELS 3 Xrotation Yrotation Zrotation
								JOINT mixamorig:RightHandMiddle1
								{
									OFFSET -23.317566 0.000000 0.000000
									CHANNELS 3 Xrotation Yrotation Zrotation
									JOINT mixamorig:RightHandMiddle2
									{
										OFFSET -6.378403 0.000000 0.000000
										CHANNELS 3 Xrotation Yrotation Zrotation
										JOINT mixamorig:RightHandMiddle3
										{
											OFFSET -6.148193 0.000000 0.000000
											CHANNELS 3 Xrotation Yrotation Zrotation
											JOINT mixamorig:RightHandMiddle4
											{
												OFFSET -6.583389 0.000000 0.000000
												CHANNELS 3 Xrotation Yrotation Zrotation
												End Site
												{
													OFFSET 1.171692 6.395905 1.029786
												}
											}
										}
									}
								}
								JOINT mixamorig:RightHandThumb1
								{
									OFFSET -7.190521 -3.860474 5.435846
									CHANNELS 3 Xrotation Yrotation Zrotation
									JOINT mixamorig:RightHandThumb2
									{
										OFFSET -6.567429 -3.791718 3.791708
										CHANNELS 3 Xrotation Yrotation Zrotation
										JOINT mixamorig:RightHandThumb3
										{
											OFFSET -6.062469 -3.500153 3.500166
											CHANNELS 3 Xrotation Yrotation Zrotation
											JOINT mixamorig:RightHandThumb4
											{
												OFFSET -4.792618 -2.767029 2.767022
												CHANNELS 3 Xrotation Yrotation Zrotation
												End Site
												{
													OFFSET -0.100327 6.053253 1.276754
												}
											}
										}
									}
								}
								JOINT mixamorig:RightHandIndex1
								{
									OFFSET -23.048981 -0.310791 4.992554
									CHANNELS 3 Xrotation Yrotation Zrotation
									JOINT mixamorig:RightHandIndex2
									{
										OFFSET -6.227539 0.000000 0.000000
										CHANNELS 3 Xrotation Yrotation Zrotation
										JOINT mixamorig:RightHandIndex3
										{
											OFFSET -6.095047 0.000000 0.000000
											CHANNELS 3 Xrotation Yrotation Zrotation
											JOINT mixamorig:RightHandIndex4
											{
												OFFSET -5.484772 0.000000 0.000000
												CHANNELS 3 Xrotation Yrotation Zrotation
												End Site
												{
													OFFSET 1.420593 5.237305 0.797056
												}
											}
										}
									}
								}
								JOINT mixamorig:RightHandRing1
								{
									OFFSET -22.246323 0.020569 -3.963762
									CHANNELS 3 Xrotation Yrotation Zrotation
									JOINT mixamorig:RightHandRing2
									{
										OFFSET -6.322128 0.000000 0.000000
										CHANNELS 3 Xrotation Yrotation Zrotation
										JOINT mixamorig:RightHandRing3
										{
											OFFSET -5.900024 0.000000 0.000000
											CHANNELS 3 Xrotation Yrotation Zrotation
											JOINT mixamorig:RightHandRing4
											{
												OFFSET -6.518356 0.000000 0.000000
												CHANNELS 3 Xrotation Yrotation Zrotation
												End Site
												{
													OFFSET 1.636398 6.232697 0.982186
												}
											}
										}
									}
								}
								JOINT mixamorig:RightHandPinky1
								{
									OFFSET -20.411011 -0.303314 -8.561701
									CHANNELS 3 Xrotation Yrotation Zrotation
									JOINT mixamorig:RightHandPinky2
									{
										OFFSET -6.907349 0.000000 0.000000
										CHANNELS 3 Xrotation Yrotation Zrotation
										JOINT mixamorig:RightHandPinky3
										{
											OFFSET -4.623840 0.000000 0.000000
											CHANNELS 3 Xrotation Yrotation Zrotation
											JOINT mixamorig:RightHandPinky4
											{
												OFFSET -5.218353 0.000000 0.000000
												CHANNELS 3 Xrotation Yrotation Zrotation
												End Site
												{
													OFFSET 0.602097 5.118835 0.816273
												}
											}
										}
									}
								}
							}
						}
					}
				}
			}
		}
	}
	JOINT mixamorig:LeftUpLeg
	{
		OFFSET 18.168400 -13.561905 -0.039000
		CHANNELS 3 Xrotation Yrotation Zrotation
		JOINT mixamorig:LeftLeg
		{
			OFFSET 0.577358 -80.825211 -3.695000
			CHANNELS 3 Xrotation Yrotation Zrotation
			JOINT mixamorig:LeftFoot
			{
				OFFSET -0.577356 -83.370262 -6.520700
				CHANNELS 3 Xrotation Yrotation Zrotation
				JOINT mixamorig:LeftToeBase
				{
					OFFSET 0.750401 -20.798306 25.135401
					CHANNELS 3 Xrotation Yrotation Zrotation
					JOINT mixamorig:LeftToe_End
					{
						OFFSET -0.000500 0.001200 19.917799
						CHANNELS 3 Xrotation Yrotation Zrotation
						End Site
						{
							OFFSET 0.000000 19.917805 0.000000
						}
					}
				}
			}
		}
	}
	JOINT mixamorig:RightUpLeg
	{
		OFFSET -18.162500 -13.585098 -0.041000
		CHANNELS 3 Xrotation Yrotation Zrotation
		JOINT mixamorig:RightLeg
		{
			OFFSET -0.595024 -80.945297 -3.631900
			CHANNELS 3 Xrotation Yrotation Zrotation
			JOINT mixamorig:RightFoot
			{
				OFFSET 0.595024 -83.218193 -6.561200
				CHANNELS 3 Xrotation Yrotation Zrotation
				JOINT mixamorig:RightToeBase
				{
					OFFSET -0.753601 -20.807106 25.115000
					CHANNELS 3 Xrotation Yrotation Zrotation
					JOINT mixamorig:RightToe_End
					{
						OFFSET 0.000299 0.001700 19.918200
						CHANNELS 3 Xrotation Yrotation Zrotation
						End Site
						{
							OFFSET 0.000000 19.918203 0.000000
						}
					}
				}
			}
		}
	}
}
MOTION
Frames: 4
Frame Time: 0.033333
0.000051 397.934204 1.058403 10.992450 -28.116735 3.638372 3.841330 -1.240446 -0.335695 7.669528 -2.560996 -0.844182 7.669522 -2.561002 -0.844178 -1.487657 3.591522 -1.391486 11.986090 15.368269 -4.713802 -0.000003 0.000000 -0.000001 -0.000003 0.000000 -0.000001 -0.000003 0.000000 -0.000001 0.588429 -3.462329 -3.520626 -7.059357 -9.297759 -43.711380 -0.017275 -52.928748 0.100606 29.515826 6.943643 13.562039 1.641869 7.127211 -4.239656 -0.187948 -0.789352 -15.969039 -0.000006 -0.000001 -0.000007 -0.000000 -0.000000 0.000000 7.350855 -14.484214 -10.934821 -1.067054 0.182844 1.946069 0.000008 0.000011 0.000005 0.000003 -0.000000 0.000001 5.776122 -9.584547 -10.641332 0.033771 0.666541 -10.636470 0.000001 -0.000016 0.000003 0.000000 -0.000001 0.000003 1.677301 11.039959 -8.046054 -0.183080 -2.876856 -23.912161 -0.000001 0.000011 -0.000002 -0.000000 -0.000001 0.000002 0.734601 28.047564 -16.218783 -0.849531 -6.142186 -29.148259 -0.000007 0.000004 0.000004 0.000001 0.000001 -0.000001 0.563012 5.327688 3.234026 0.637545 1.165874 56.643418 -0.033506 59.202099 -0.091513 15.196572 -6.984202 -11.349818 -1.738478 -1.670996 3.393782 -0.252695 0.798115 21.448278 0.000000 0.000001 0.000002 0.000000 -0.000001 -0.000000 -4.978393 12.391675 9.407252 -1.210147 -0.220433 -2.120992 0.000001 0.000013 -0.000005 0.000000 -0.000001 0.000002 10.258593 13.576564 6.067473 0.012524 -0.647893 4.076589 -0.000000 -0.000002 -0.000006 0.000002 0.000002 0.000002 -0.824286 -13.700957 18.348832 -0.242205 2.213606 16.221211 -0.000000 0.000000 -0.000010 -0.000001 0.000000 0.000000 -4.380728 -23.900592 30.060339 -0.233915 5.125300 12.870286 0.000001 -0.000000 0.000007 0.000000 -0.000000 0.000001 -41.847507 8.690757 15.711803 56.220875 -0.452765 -1.986587 -27.519329 8.274594 -5.693238 0.003002 -0.026203 0.062612 -0.000000 -0.000000 0.000000 -33.589108 3.455806 -8.059782 50.540531 0.443438 1.817495 -24.108447 -10.777477 0.952186 -0.012209 -0.109692 0.262095 -0.000000 -0.000003 0.000001 
-0.016205 397.940796 1.046757 10.952032 -28.145581 3.633182 3.835887 -1.239796 -0.335553 7.658709 -2.559018 -0.842375 7.658696 -2.559021 -0.842375 -1.474682 3.591794 -1.391434 12.003011 15.373491 -4.721335 -0.000001 -0.000001 -0.000000 -0.000001 -0.000001 -0.000000 -0.000001 -0.000001 -0.000000 0.591011 -3.462774 -3.524391 -7.112074 -9.436349 -43.811214 -0.018352 -52.755497 0.099667 29.664044 6.964103 13.674342 1.641878 7.127186 -4.239656 -0.187949 -0.789352 -15.969027 -0.000005 -0.000002 -0.000004 0.000001 -0.000000 0.000003 7.350856 -14.484227 -10.934835 -1.067058 0.182837 1.946080 0.000004 0.000012 0.000001 0.000001 0.000001 -0.000002 5.776125 -9.584571 -10.641325 0.033753 0.666538 -10.636465 0.000001 -0.000014 0.000000 -0.000001 0.000001 -0.000002 1.677308 11.039966 -8.046064 -0.183072 -2.876865 -23.912151 -0.000002 0.000011 -0.000002 -0.000000 -0.000000 0.000001 0.734606 28.047543 -16.218796 -0.849520 -6.142192 -29.148263 -0.000009 0.000005 0.000004 -0.000001 0.000001 0.000001 0.562158 5.317912 3.216224 0.687398 1.124480 56.641560 -0.033665 59.189634 -0.091462 15.220245 -6.973443 -11.375631 -1.738478 -1.670996 3.393781 -0.252699 0.798113 21.448276 0.000003 -0.000000 0.000007 -0.000001 0.000001 0.000001 -4.978394 12.391673 9.407254 -1.210146 -0.220433 -2.121003 -0.000002 0.000010 -0.000003 0.000001 -0.000003 -0.000001 10.258588 13.576562 6.067482 0.012529 -0.647891 4.076589 0.000001 -0.000003 -0.000009 -0.000000 0.000000 -0.000003 -0.824286 -13.700960 18.348839 -0.242207 2.213607 16.221209 -0.000000 0.000000 -0.000009 -0.000000 0.000000 0.000000 -4.380725 -23.900592 30.060346 -0.233913 5.125300 12.870286 -0.000000 0.000000 0.000007 0.000001 -0.000000 0.000001 -41.798319 8.737438 15.739351 56.195716 -0.451689 -1.985750 -27.497780 8.292178 -5.704787 0.002998 -0.026198 0.062609 0.000000 -0.000001 0.000000 -33.558844 3.469417 -8.059956 50.545336 0.443443 1.817639 -24.105192 -10.758236 0.964532 -0.012201 -0.109724 0.262093 0.000000 -0.000002 -0.000001 
-0.048756 397.954346 1.023466 10.871298 -28.203202 3.622706 3.843074 -1.241756 -0.337709 7.673128 -2.562075 -0.843016 7.673131 -2.562079 -0.843019 -1.448409 3.592172 -1.391355 12.036845 15.383934 -4.736380 0.000000 0.000001 0.000000 0.000000 0.000001 0.000000 0.000000 0.000001 0.000000 0.596491 -3.463790 -3.531952 -7.135881 -9.391922 -43.828924 -0.017720 -52.943569 0.099806 29.896199 7.103137 13.643316 1.641878 7.127196 -4.239646 -0.187948 -0.789337 -15.969028 -0.000006 -0.000002 -0.000005 -0.000000 0.000000 0.000003 7.350864 -14.484227 -10.934824 -1.067076 0.182856 1.946090 0.000007 0.000009 0.000004 0.000003 0.000002 -0.000002 5.776123 -9.584561 -10.641313 0.033762 0.666546 -10.636465 0.000002 -0.000015 0.000006 0.000000 -0.000003 -0.000001 1.677307 11.039946 -8.046045 -0.183070 -2.876885 -23.912176 -0.000001 0.000011 -0.000003 -0.000001 0.000000 -0.000002 0.734610 28.047537 -16.218773 -0.849529 -6.142175 -29.148276 -0.000010 0.000006 0.000002 -0.000002 0.000001 0.000002 0.560777 5.298251 3.180585 0.662363 1.154070 56.664035 -0.034000 59.153523 -0.091247 15.268032 -6.996382 -11.399951 -1.738481 -1.670997 3.393780 -0.252697 0.798114 21.448274 0.000001 -0.000000 0.000000 -0.000001 0.000000 -0.000001 -4.978398 12.391673 9.407255 -1.210148 -0.220434 -2.120997 -0.000002 0.000007 -0.000010 -0.000001 0.000000 -0.000001 10.258588 13.576564 6.067485 0.012527 -0.647890 4.076590 0.000003 -0.000002 -0.000003 -0.000000 0.000001 0.000001 -0.824287 -13.700957 18.348844 -0.242205 2.213606 16.221214 -0.000002 -0.000000 -0.000007 -0.000000 -0.000000 -0.000001 -4.380728 -23.900587 30.060342 -0.233914 5.125301 12.870287 0.000001 0.000000 0.000006 0.000000 -0.000000 0.000001 -41.699985 8.830847 15.794391 56.145183 -0.449589 -1.984077 -27.454540 8.327288 -5.727892 0.002986 -0.026196 0.062609 0.000000 -0.000000 0.000000 -33.498267 3.496528 -8.060214 50.554458 0.443429 1.817912 -24.098412 -10.719794 0.989181 -0.012205 -0.109718 0.262099 -0.000000 0.000003 -0.000000 
-0.073208 397.964355 1.006016 10.810828 -28.246333 3.614820 3.859365 -1.246224 -0.341039 7.705697 -2.570480 -0.846408 7.705706 -2.570493 -0.846405 -1.428783 3.592496 -1.391277 12.062224 15.391760 -4.747659 -0.000001 0.000001 -0.000000 -0.000001 0.000001 -0.000000 -0.000001 0.000001 -0.000000 0.600515 -3.464538 -3.537609 -7.307610 -9.644657 -43.961222 -0.020505 -52.392800 0.097943 29.917762 6.962735 13.920602 1.641878 7.127195 -4.239647 -0.187951 -0.789336 -15.969034 -0.000007 -0.000002 -0.000002 -0.000000 0.000000 0.000004 7.350860 -14.484215 -10.934832 -1.067058 0.182825 1.946093 0.000004 0.000007 0.000004 0.000002 -0.000002 -0.000002 5.776128 -9.584553 -10.641320 0.033750 0.666567 -10.636463 0.000003 -0.000018 -0.000006 0.000000 0.000001 0.000003 1.677305 11.039969 -8.046047 -0.183073 -2.876871 -23.912152 -0.000001 0.000011 -0.000003 -0.000001 0.000000 -0.000000 0.734602 28.047552 -16.218761 -0.849536 -6.142174 -29.148263 -0.000010 0.000004 0.000006 0.000000 -0.000001 -0.000000 0.559651 5.283516 3.153864 0.421358 1.421312 56.765224 -0.034066 59.097098 -0.090955 15.362371 -7.175905 -11.292949 -1.738480 -1.670999 3.393785 -0.252698 0.798114 21.448274 0.000002 -0.000001 0.000004 0.000001 0.000001 -0.000002 -4.978393 12.391671 9.407255 -1.210149 -0.220433 -2.120995 -0.000002 0.000010 -0.000007 -0.000002 -0.000000 0.000001 10.258588 13.576562 6.067477 0.012529 -0.647890 4.076590 -0.000000 0.000000 -0.000007 -0.000000 0.000001 0.000001 -0.824287 -13.700958 18.348835 -0.242205 2.213608 16.221213 -0.000000 -0.000001 -0.000008 -0.000001 -0.000000 0.000001 -4.380726 -23.900587 30.060346 -0.233914 5.125300 12.870285 0.000001 -0.000000 0.000007 0.000000 -0.000001 0.000001 -41.626366 8.901005 15.835594 56.107050 -0.448070 -1.982821 -27.421944 8.353572 -5.745202 0.002990 -0.026198 0.062609 0.000000 0.000000 0.000000 -33.453034 3.516918 -8.060383 50.561514 0.443296 1.818104 -24.093453 -10.691005 1.007688 -0.012201 -0.109726 0.262094 0.000000 -0.000003 0.000000 
